<svg class="h-full w-auto" viewBox="0 0 200 206" fill="none" xmlns="http://www.w3.org/2000/svg">
                                    <path d="M199.887 46.582c.074.275.112.558.113.842v44.198a3.226 3.226 
0 0 1-1.619 2.796l-37.093 21.358v42.333a3.231 3.231 0 0 1-1.611 2.796l-77.428 
44.576c-.177.101-.37.166-.564.234-.072.024-.14.069-.217.089a3.254 3.254 0 0 1-1.652 
0c-.088-.024-.169-.073-.253-.105-.178-.065-.363-.121-.532-.218L1.619 160.905A3.23 3.23 0 0 1 0 
158.109V25.514c0-.29.04-.572.113-.845.024-.093.08-.178.113-.27.06-.17.116-.343.205-.5.06-.105.149-.19.222-.286.092-.129.177-.262.285-.374.093-.093.214-.162.319-.242.117-.097.221-.202.354-.278h.004L40.323.43a3.23 
3.23 0 0 1 3.222 0l38.708 
22.288h.008c.13.08.238.181.355.274.104.08.221.153.314.242.113.116.193.25.29.378.068.097.161.181.217.286.093.161.145.33.21.5.032.092.088.177.113.274.074.274.112.557.112.842v82.817l32.256-18.575V47.42c0-.282.04-.568.112-.838.029-.096.081-.18.113-.274.065-.169.121-.342.21-.5.06-.104.149-.188.217-.285.097-.129.177-.262.29-.375.093-.092.21-.16.314-.241.121-.097.226-.202.355-.278h.004l38.712-22.289a3.224 
3.224 0 0 1 3.222 0l38.708 
22.289c.137.08.241.18.362.274.101.08.218.153.31.241.113.117.194.25.29.379.073.097.162.181.218.286.093.157.145.33.209.5.037.092.089.177.113.273Zm-6.34 
43.175V53.003l-13.545 7.8-18.714 10.775v36.754l32.263-18.575h-.004Zm-38.707 66.487v-36.778l-18.408 
10.514-52.564 30.002v37.125l70.972-40.863ZM6.453 31.094v125.15l70.963 
40.859v-37.117l-37.073-20.983-.012-.008-.016-.008c-.125-.073-.23-.177-.346-.266-.101-.081-.218-.145-.306-.234l-.009-.012c-.104-.1-.177-.225-.265-.338-.081-.109-.178-.202-.242-.314l-.004-.012c-.073-.121-.117-.266-.17-.403-.052-.121-.12-.234-.152-.363v-.004c-.04-.153-.049-.314-.065-.471-.016-.121-.048-.242-.048-.363V49.668l-18.71-10.78-13.545-7.79v-.004ZM41.938 
6.948 9.687 25.515 41.93 44.08l32.247-18.57L41.93 6.948h.008ZM58.71 122.817l18.71-10.771V31.094l-13.546 
7.798L45.16 49.668v80.952l13.55-7.803Zm99.356-93.959-32.247 18.566 32.247 18.567 
32.243-18.57-32.243-18.563Zm-3.226 42.72-18.714-10.776-13.546-7.799v36.754l18.71 10.772 13.55 
7.803V71.578Zm-74.202 82.825 47.299-27.006 23.644-13.494-32.223-18.554-37.1 21.361-33.815 19.469 32.195 
18.224Z" fill="#FF2D20"></path>
                                </svg>
