<svg class="h-full w-auto" viewBox="0 0 200 228" height="228" fill="none" 
xmlns="http://www.w3.org/2000/svg">
                                    <path fill-rule="evenodd" clip-rule="evenodd" d="M189.821 
151.122c-3.708 5.607-6.525 12.514-14.065 12.514-12.688 0-13.374-19.565-26.069-19.565-12.695 0-12.009 
19.565-24.698 19.565-12.688 0-13.374-19.565-26.07-19.565-12.695 0-12.009 19.565-24.697 19.565-12.688 
0-13.374-19.565-26.07-19.565-12.695 0-12.009 19.565-24.697 19.565-3.988 0-6.79-1.932-9.152-4.582C5.223 
143.253 0 124.737 0 104.941 0 46.984 44.772 0 100 0s100 46.984 100 104.941c0 16.571-3.66 32.246-10.179 
46.181Z" fill="#FB70A9"></path>
                                    <mask id="a" style="mask-type:alpha" maskUnits="userSpaceOnUse" 
x="31" y="122" width="133" height="106">
                                        <path d="M60.065 140.762v43.467c0 7.8-6.323 14.123-14.123 
14.123-7.8 0-14.124-6.323-14.124-14.123v-52.474c2.636-4.838 5.647-9.028 11.076-9.028 8.838 0 11.926 
11.102 17.17 18.035Zm53.355 2.265v68.735c0 8.667-7.026 15.693-15.693 15.693-8.666 
0-15.692-7.026-15.692-15.693v-77.795c2.955-5.698 6-11.24 12.245-11.24 9.885 0 12.577 13.891 19.14 
20.3Zm50.216-1.262v49.9c0 7.801-6.323 14.124-14.123 14.124-7.8 
0-14.123-6.323-14.123-14.124v-61.332c2.459-4.209 5.387-7.606 10.275-7.606 9.278 0 12.219 12.236 17.971 
19.038Z" fill="#fff"></path>
                                    </mask>
                                    <g mask="url(#a)">
                                        <path d="M60.065 140.762v43.467c0 7.8-6.323 14.123-14.123 
14.123-7.8 0-14.124-6.323-14.124-14.123v-52.474c2.636-4.838 5.647-9.028 11.076-9.028 8.838 0 11.926 
11.102 17.17 18.035Zm53.355 2.265v68.735c0 8.667-7.026 15.693-15.693 15.693-8.666 
0-15.692-7.026-15.692-15.693v-77.795c2.955-5.698 6-11.24 12.245-11.24 9.885 0 12.577 13.891 19.14 
20.3Zm50.216-1.262v49.9c0 7.801-6.323 14.124-14.123 14.124-7.8 
0-14.123-6.323-14.123-14.124v-61.332c2.459-4.209 5.387-7.606 10.275-7.606 9.278 0 12.219 12.236 17.971 
19.038Z" fill="#4E56A6" class=""></path>
                                    </g>
                                    <mask id="b" style="mask-type:alpha" maskUnits="userSpaceOnUse" 
x="31" y="97" width="133" height="73">
                                        <path d="M60.065 
154.084c-2.505-3.068-5.471-5.344-9.76-5.344-10.185 0-12.054 12.835-18.487 18.622v-55.365c0-7.8 
6.323-14.123 14.124-14.123 7.8 0 14.123 6.323 14.123 
14.123v42.087Zm53.355.99c-2.672-3.555-5.795-6.334-10.535-6.334-11.33 0-12.37 15.887-20.85 
20.28v-24.485c0-8.667 7.026-15.693 15.692-15.693 8.667 0 15.693 7.026 15.693 
15.693v10.539Zm50.216-2.748c-2.174-2.14-4.752-3.586-8.17-3.586-10.977 0-12.295 14.909-20.076 
19.835v-49.696c0-7.8 6.323-14.124 14.123-14.124 7.8 0 14.123 6.324 14.123 14.124v33.447Z" 
fill="#fff"></path>
                                    </mask>
                                    <g mask="url(#b)">
                                        <path d="M60.065 
154.084c-2.505-3.068-5.471-5.344-9.76-5.344-10.185 0-12.054 12.835-18.487 18.622v-55.365c0-7.8 
6.323-14.123 14.124-14.123 7.8 0 14.123 6.323 14.123 
14.123v42.087Zm53.355.99c-2.672-3.555-5.795-6.334-10.535-6.334-11.33 0-12.37 15.887-20.85 
20.28v-24.485c0-8.667 7.026-15.693 15.692-15.693 8.667 0 15.693 7.026 15.693 
15.693v10.539Zm50.216-2.748c-2.174-2.14-4.752-3.586-8.17-3.586-10.977 0-12.295 14.909-20.076 
19.835v-49.696c0-7.8 6.323-14.124 14.123-14.124 7.8 0 14.123 6.324 14.123 14.124v33.447Z" fill="#000" 
fill-opacity=".299"></path>
                                    </g>
                                    <path fill-rule="evenodd" clip-rule="evenodd" d="M189.821 
151.122c-3.708 5.607-6.525 12.514-14.065 12.514-12.688 0-13.374-19.565-26.069-19.565-12.695 0-12.009 
19.565-24.698 19.565-12.688 0-13.374-19.565-26.07-19.565-12.695 0-12.009 19.565-24.697 19.565-12.688 
0-13.374-19.565-26.07-19.565-12.695 0-12.009 19.565-24.697 19.565-3.988 0-6.79-1.932-9.152-4.582C5.223 
143.253 0 124.737 0 104.941 0 46.984 44.772 0 100 0s100 46.984 100 104.941c0 16.571-3.66 32.246-10.179 
46.181Z" fill="#FB70A9" class=""></path>
                                    <path fill-rule="evenodd" clip-rule="evenodd" d="M168.182 
161.546c26.205-38.985 26.883-82.227 2.031-129.728C188.634 50.69 200 76.587 200 105.162c0 16.509-3.794 
32.124-10.55 46.007-3.844 5.586-6.764 12.467-14.579 12.467-2.674 0-4.834-.806-6.689-2.09Z" 
fill="#E24CA6"></path>
                                    <path fill-rule="evenodd" clip-rule="evenodd" d="M94.639 
131.119c34.775 0 49.417-20.174 49.417-48.824s-22.125-55.022-49.417-55.022c-27.293 0-49.417 26.372-49.417 
55.022s14.642 48.824 49.417 48.824Z" fill="#fff"></path>
                                    <path d="M81.352 83.916c10.234 0 18.531-9.158 18.531-20.454 
0-11.297-8.296-20.455-18.531-20.455S62.82 52.165 62.82 63.462c0 11.296 8.297 20.454 18.532 20.454Z" 
fill="#030776"></path>
                                    <path d="M78.263 68.182c5.118 0 9.266-4.227 9.266-9.44 
0-5.215-4.148-9.441-9.266-9.441-5.117 0-9.266 4.226-9.266 9.44 0 5.214 4.149 9.44 9.266 9.44Z" 
fill="#fff"></path>
                                </svg>
