<svg class="h-full w-auto" viewBox="0 0 200 120" fill="none" xmlns="http://www.w3.org/2000/svg">
                                    <path fill-rule="evenodd" clip-rule="evenodd" d="M100 0C73.333 0 
56.667 13.333 50 40c10-13.333 21.667-18.333 35-15 7.607 1.9 13.044 7.422 19.063 13.53C113.867 48.48 
125.215 60 150 60c26.667 0 43.333-13.333 50-40-10 13.333-21.667 18.333-35 
15-7.607-1.9-13.044-7.422-19.063-13.53C136.133 11.52 124.785 0 100 0ZM50 60C23.333 60 6.667 73.333 0 
100c10-13.333 21.667-18.333 35-15 7.607 1.904 13.044 7.422 19.063 13.53C63.867 108.48 75.215 120 100 
120c26.667 0 43.333-13.333 50-40-10 13.333-21.667 18.333-35 15-7.607-1.9-13.044-7.422-19.063-13.53C86.133 
71.52 74.785 60 50 60Z" fill="#38BDF8" class=""></path>
                                </svg>
